<?xml version="1.0" encoding="utf-8" standalone="no"?>
<!DOCTYPE svg PUBLIC "-//W3C//DTD SVG 1.1//EN"
  "http://www.w3.org/Graphics/SVG/1.1/DTD/svg11.dtd">
<svg height="288pt" version="1.1" viewBox="0 0 1008 288" width="1008pt" xmlns="http://www.w3.org/2000/svg" xmlns:xlink="http://www.w3.org/1999/xlink">
 <metadata>
  <rdf:RDF xmlns:cc="http://creativecommons.org/ns#" xmlns:dc="http://purl.org/dc/elements/1.1/" xmlns:rdf="http://www.w3.org/1999/02/22-rdf-syntax-ns#">
   <cc:Work>
    <dc:type rdf:resource="http://purl.org/dc/dcmitype/StillImage"/>
    <dc:date>2021-07-09T15:26:37.565980</dc:date>
    <dc:format>image/svg+xml</dc:format>
    <dc:creator>
     <cc:Agent>
      <dc:title>Matplotlib v3.4.2, https://matplotlib.org/</dc:title>
     </cc:Agent>
    </dc:creator>
   </cc:Work>
  </rdf:RDF>
 </metadata>
 <defs>
  <style type="text/css">*{stroke-linecap:butt;stroke-linejoin:round;}</style>
 </defs>
 <g id="figure_1">
  <g id="patch_1">
   <path d="M 0 288 
L 1008 288 
L 1008 0 
L 0 0 
z
" style="fill:none;"/>
  </g>
  <g id="axes_1">
   <g id="patch_2">
    <path d="M 41.925 261.2 
L 316.174597 261.2 
L 316.174597 24.846875 
L 41.925 24.846875 
z
" style="fill:#ffffff;"/>
   </g>
   <g id="patch_3">
    <path clip-path="url(#p7528eae44a)" d="M 54.390891 261.2 
L 86.910606 261.2 
L 86.910606 188.195174 
L 54.390891 188.195174 
z
" style="fill:#caffbf;"/>
   </g>
   <g id="patch_4">
    <path clip-path="url(#p7528eae44a)" d="M 162.789941 261.2 
L 195.309656 261.2 
L 195.309656 261.2 
L 162.789941 261.2 
z
" style="fill:#caffbf;"/>
   </g>
   <g id="patch_5">
    <path clip-path="url(#p7528eae44a)" d="M 271.188991 261.2 
L 303.708706 261.2 
L 303.708706 261.2 
L 271.188991 261.2 
z
" style="fill:#caffbf;"/>
   </g>
   <g id="patch_6">
    <path clip-path="url(#p7528eae44a)" d="M 54.390891 188.195174 
L 86.910606 188.195174 
L 86.910606 36.101786 
L 54.390891 36.101786 
z
" style="fill:#ffadad;"/>
   </g>
   <g id="patch_7">
    <path clip-path="url(#p7528eae44a)" d="M 162.789941 261.2 
L 195.309656 261.2 
L 195.309656 36.101786 
L 162.789941 36.101786 
z
" style="fill:#ffadad;"/>
   </g>
   <g id="patch_8">
    <path clip-path="url(#p7528eae44a)" d="M 271.188991 261.2 
L 303.708706 261.2 
L 303.708706 36.101786 
L 271.188991 36.101786 
z
" style="fill:#ffadad;"/>
   </g>
   <g id="matplotlib.axis_1">
    <g id="xtick_1">
     <g id="line2d_1">
      <defs>
       <path d="M 0 0 
L 0 3.5 
" id="ma9069f75e3" style="stroke:#000000;stroke-width:0.8;"/>
      </defs>
      <g>
       <use style="stroke:#000000;stroke-width:0.8;" x="70.650748" xlink:href="#ma9069f75e3" y="261.2"/>
      </g>
     </g>
     <g id="text_1">
      <!-- nonlinear -->
      <g transform="translate(50.081217 275.357813)scale(0.1 -0.1)">
       <defs>
        <path d="M 422 0 
L 422 3319 
L 928 3319 
L 928 2847 
Q 1294 3394 1984 3394 
Q 2284 3394 2536 3286 
Q 2788 3178 2913 3003 
Q 3038 2828 3088 2588 
Q 3119 2431 3119 2041 
L 3119 0 
L 2556 0 
L 2556 2019 
Q 2556 2363 2490 2533 
Q 2425 2703 2258 2804 
Q 2091 2906 1866 2906 
Q 1506 2906 1245 2678 
Q 984 2450 984 1813 
L 984 0 
L 422 0 
z
" id="ArialMT-6e" transform="scale(0.015625)"/>
        <path d="M 213 1659 
Q 213 2581 725 3025 
Q 1153 3394 1769 3394 
Q 2453 3394 2887 2945 
Q 3322 2497 3322 1706 
Q 3322 1066 3130 698 
Q 2938 331 2570 128 
Q 2203 -75 1769 -75 
Q 1072 -75 642 372 
Q 213 819 213 1659 
z
M 791 1659 
Q 791 1022 1069 705 
Q 1347 388 1769 388 
Q 2188 388 2466 706 
Q 2744 1025 2744 1678 
Q 2744 2294 2464 2611 
Q 2184 2928 1769 2928 
Q 1347 2928 1069 2612 
Q 791 2297 791 1659 
z
" id="ArialMT-6f" transform="scale(0.015625)"/>
        <path d="M 409 0 
L 409 4581 
L 972 4581 
L 972 0 
L 409 0 
z
" id="ArialMT-6c" transform="scale(0.015625)"/>
        <path d="M 425 3934 
L 425 4581 
L 988 4581 
L 988 3934 
L 425 3934 
z
M 425 0 
L 425 3319 
L 988 3319 
L 988 0 
L 425 0 
z
" id="ArialMT-69" transform="scale(0.015625)"/>
        <path d="M 2694 1069 
L 3275 997 
Q 3138 488 2766 206 
Q 2394 -75 1816 -75 
Q 1088 -75 661 373 
Q 234 822 234 1631 
Q 234 2469 665 2931 
Q 1097 3394 1784 3394 
Q 2450 3394 2872 2941 
Q 3294 2488 3294 1666 
Q 3294 1616 3291 1516 
L 816 1516 
Q 847 969 1125 678 
Q 1403 388 1819 388 
Q 2128 388 2347 550 
Q 2566 713 2694 1069 
z
M 847 1978 
L 2700 1978 
Q 2663 2397 2488 2606 
Q 2219 2931 1791 2931 
Q 1403 2931 1139 2672 
Q 875 2413 847 1978 
z
" id="ArialMT-65" transform="scale(0.015625)"/>
        <path d="M 2588 409 
Q 2275 144 1986 34 
Q 1697 -75 1366 -75 
Q 819 -75 525 192 
Q 231 459 231 875 
Q 231 1119 342 1320 
Q 453 1522 633 1644 
Q 813 1766 1038 1828 
Q 1203 1872 1538 1913 
Q 2219 1994 2541 2106 
Q 2544 2222 2544 2253 
Q 2544 2597 2384 2738 
Q 2169 2928 1744 2928 
Q 1347 2928 1158 2789 
Q 969 2650 878 2297 
L 328 2372 
Q 403 2725 575 2942 
Q 747 3159 1072 3276 
Q 1397 3394 1825 3394 
Q 2250 3394 2515 3294 
Q 2781 3194 2906 3042 
Q 3031 2891 3081 2659 
Q 3109 2516 3109 2141 
L 3109 1391 
Q 3109 606 3145 398 
Q 3181 191 3288 0 
L 2700 0 
Q 2613 175 2588 409 
z
M 2541 1666 
Q 2234 1541 1622 1453 
Q 1275 1403 1131 1340 
Q 988 1278 909 1158 
Q 831 1038 831 891 
Q 831 666 1001 516 
Q 1172 366 1500 366 
Q 1825 366 2078 508 
Q 2331 650 2450 897 
Q 2541 1088 2541 1459 
L 2541 1666 
z
" id="ArialMT-61" transform="scale(0.015625)"/>
        <path d="M 416 0 
L 416 3319 
L 922 3319 
L 922 2816 
Q 1116 3169 1280 3281 
Q 1444 3394 1641 3394 
Q 1925 3394 2219 3213 
L 2025 2691 
Q 1819 2813 1613 2813 
Q 1428 2813 1281 2702 
Q 1134 2591 1072 2394 
Q 978 2094 978 1738 
L 978 0 
L 416 0 
z
" id="ArialMT-72" transform="scale(0.015625)"/>
       </defs>
       <use xlink:href="#ArialMT-6e"/>
       <use x="55.615234" xlink:href="#ArialMT-6f"/>
       <use x="111.230469" xlink:href="#ArialMT-6e"/>
       <use x="166.845703" xlink:href="#ArialMT-6c"/>
       <use x="189.0625" xlink:href="#ArialMT-69"/>
       <use x="211.279297" xlink:href="#ArialMT-6e"/>
       <use x="266.894531" xlink:href="#ArialMT-65"/>
       <use x="322.509766" xlink:href="#ArialMT-61"/>
       <use x="378.125" xlink:href="#ArialMT-72"/>
      </g>
     </g>
    </g>
    <g id="xtick_2">
     <g id="line2d_2">
      <g>
       <use style="stroke:#000000;stroke-width:0.8;" x="179.049798" xlink:href="#ma9069f75e3" y="261.2"/>
      </g>
     </g>
     <g id="text_2">
      <!-- linear_forward -->
      <g transform="translate(147.370111 275.479688)scale(0.1 -0.1)">
       <defs>
        <path d="M -97 -1272 
L -97 -866 
L 3631 -866 
L 3631 -1272 
L -97 -1272 
z
" id="ArialMT-5f" transform="scale(0.015625)"/>
        <path d="M 556 0 
L 556 2881 
L 59 2881 
L 59 3319 
L 556 3319 
L 556 3672 
Q 556 4006 616 4169 
Q 697 4388 901 4523 
Q 1106 4659 1475 4659 
Q 1713 4659 2000 4603 
L 1916 4113 
Q 1741 4144 1584 4144 
Q 1328 4144 1222 4034 
Q 1116 3925 1116 3625 
L 1116 3319 
L 1763 3319 
L 1763 2881 
L 1116 2881 
L 1116 0 
L 556 0 
z
" id="ArialMT-66" transform="scale(0.015625)"/>
        <path d="M 1034 0 
L 19 3319 
L 600 3319 
L 1128 1403 
L 1325 691 
Q 1338 744 1497 1375 
L 2025 3319 
L 2603 3319 
L 3100 1394 
L 3266 759 
L 3456 1400 
L 4025 3319 
L 4572 3319 
L 3534 0 
L 2950 0 
L 2422 1988 
L 2294 2553 
L 1622 0 
L 1034 0 
z
" id="ArialMT-77" transform="scale(0.015625)"/>
        <path d="M 2575 0 
L 2575 419 
Q 2259 -75 1647 -75 
Q 1250 -75 917 144 
Q 584 363 401 755 
Q 219 1147 219 1656 
Q 219 2153 384 2558 
Q 550 2963 881 3178 
Q 1213 3394 1622 3394 
Q 1922 3394 2156 3267 
Q 2391 3141 2538 2938 
L 2538 4581 
L 3097 4581 
L 3097 0 
L 2575 0 
z
M 797 1656 
Q 797 1019 1065 703 
Q 1334 388 1700 388 
Q 2069 388 2326 689 
Q 2584 991 2584 1609 
Q 2584 2291 2321 2609 
Q 2059 2928 1675 2928 
Q 1300 2928 1048 2622 
Q 797 2316 797 1656 
z
" id="ArialMT-64" transform="scale(0.015625)"/>
       </defs>
       <use xlink:href="#ArialMT-6c"/>
       <use x="22.216797" xlink:href="#ArialMT-69"/>
       <use x="44.433594" xlink:href="#ArialMT-6e"/>
       <use x="100.048828" xlink:href="#ArialMT-65"/>
       <use x="155.664062" xlink:href="#ArialMT-61"/>
       <use x="211.279297" xlink:href="#ArialMT-72"/>
       <use x="244.580078" xlink:href="#ArialMT-5f"/>
       <use x="300.195312" xlink:href="#ArialMT-66"/>
       <use x="327.978516" xlink:href="#ArialMT-6f"/>
       <use x="383.59375" xlink:href="#ArialMT-72"/>
       <use x="416.894531" xlink:href="#ArialMT-77"/>
       <use x="489.111328" xlink:href="#ArialMT-61"/>
       <use x="544.726562" xlink:href="#ArialMT-72"/>
       <use x="578.027344" xlink:href="#ArialMT-64"/>
      </g>
     </g>
    </g>
    <g id="xtick_3">
     <g id="line2d_3">
      <g>
       <use style="stroke:#000000;stroke-width:0.8;" x="287.448849" xlink:href="#ma9069f75e3" y="261.2"/>
      </g>
     </g>
     <g id="text_3">
      <!-- linear_backward -->
      <g transform="translate(251.042599 275.357813)scale(0.1 -0.1)">
       <defs>
        <path d="M 941 0 
L 419 0 
L 419 4581 
L 981 4581 
L 981 2947 
Q 1338 3394 1891 3394 
Q 2197 3394 2470 3270 
Q 2744 3147 2920 2923 
Q 3097 2700 3197 2384 
Q 3297 2069 3297 1709 
Q 3297 856 2875 390 
Q 2453 -75 1863 -75 
Q 1275 -75 941 416 
L 941 0 
z
M 934 1684 
Q 934 1088 1097 822 
Q 1363 388 1816 388 
Q 2184 388 2453 708 
Q 2722 1028 2722 1663 
Q 2722 2313 2464 2622 
Q 2206 2931 1841 2931 
Q 1472 2931 1203 2611 
Q 934 2291 934 1684 
z
" id="ArialMT-62" transform="scale(0.015625)"/>
        <path d="M 2588 1216 
L 3141 1144 
Q 3050 572 2676 248 
Q 2303 -75 1759 -75 
Q 1078 -75 664 370 
Q 250 816 250 1647 
Q 250 2184 428 2587 
Q 606 2991 970 3192 
Q 1334 3394 1763 3394 
Q 2303 3394 2647 3120 
Q 2991 2847 3088 2344 
L 2541 2259 
Q 2463 2594 2264 2762 
Q 2066 2931 1784 2931 
Q 1359 2931 1093 2626 
Q 828 2322 828 1663 
Q 828 994 1084 691 
Q 1341 388 1753 388 
Q 2084 388 2306 591 
Q 2528 794 2588 1216 
z
" id="ArialMT-63" transform="scale(0.015625)"/>
        <path d="M 425 0 
L 425 4581 
L 988 4581 
L 988 1969 
L 2319 3319 
L 3047 3319 
L 1778 2088 
L 3175 0 
L 2481 0 
L 1384 1697 
L 988 1316 
L 988 0 
L 425 0 
z
" id="ArialMT-6b" transform="scale(0.015625)"/>
       </defs>
       <use xlink:href="#ArialMT-6c"/>
       <use x="22.216797" xlink:href="#ArialMT-69"/>
       <use x="44.433594" xlink:href="#ArialMT-6e"/>
       <use x="100.048828" xlink:href="#ArialMT-65"/>
       <use x="155.664062" xlink:href="#ArialMT-61"/>
       <use x="211.279297" xlink:href="#ArialMT-72"/>
       <use x="244.580078" xlink:href="#ArialMT-5f"/>
       <use x="300.195312" xlink:href="#ArialMT-62"/>
       <use x="355.810547" xlink:href="#ArialMT-61"/>
       <use x="411.425781" xlink:href="#ArialMT-63"/>
       <use x="461.425781" xlink:href="#ArialMT-6b"/>
       <use x="511.425781" xlink:href="#ArialMT-77"/>
       <use x="583.642578" xlink:href="#ArialMT-61"/>
       <use x="639.257812" xlink:href="#ArialMT-72"/>
       <use x="672.558594" xlink:href="#ArialMT-64"/>
      </g>
     </g>
    </g>
   </g>
   <g id="matplotlib.axis_2">
    <g id="ytick_1">
     <g id="line2d_4">
      <defs>
       <path d="M 0 0 
L -3.5 0 
" id="m2e148cb361" style="stroke:#000000;stroke-width:0.8;"/>
      </defs>
      <g>
       <use style="stroke:#000000;stroke-width:0.8;" x="41.925" xlink:href="#m2e148cb361" y="261.2"/>
      </g>
     </g>
     <g id="text_4">
      <!-- 0 -->
      <g transform="translate(29.364063 264.778906)scale(0.1 -0.1)">
       <defs>
        <path d="M 266 2259 
Q 266 3072 433 3567 
Q 600 4063 929 4331 
Q 1259 4600 1759 4600 
Q 2128 4600 2406 4451 
Q 2684 4303 2865 4023 
Q 3047 3744 3150 3342 
Q 3253 2941 3253 2259 
Q 3253 1453 3087 958 
Q 2922 463 2592 192 
Q 2263 -78 1759 -78 
Q 1097 -78 719 397 
Q 266 969 266 2259 
z
M 844 2259 
Q 844 1131 1108 757 
Q 1372 384 1759 384 
Q 2147 384 2411 759 
Q 2675 1134 2675 2259 
Q 2675 3391 2411 3762 
Q 2147 4134 1753 4134 
Q 1366 4134 1134 3806 
Q 844 3388 844 2259 
z
" id="ArialMT-30" transform="scale(0.015625)"/>
       </defs>
       <use xlink:href="#ArialMT-30"/>
      </g>
     </g>
    </g>
    <g id="ytick_2">
     <g id="line2d_5">
      <g>
       <use style="stroke:#000000;stroke-width:0.8;" x="41.925" xlink:href="#m2e148cb361" y="233.062723"/>
      </g>
     </g>
     <g id="text_5">
      <!-- 5 -->
      <g transform="translate(29.364063 236.641629)scale(0.1 -0.1)">
       <defs>
        <path d="M 266 1200 
L 856 1250 
Q 922 819 1161 601 
Q 1400 384 1738 384 
Q 2144 384 2425 690 
Q 2706 997 2706 1503 
Q 2706 1984 2436 2262 
Q 2166 2541 1728 2541 
Q 1456 2541 1237 2417 
Q 1019 2294 894 2097 
L 366 2166 
L 809 4519 
L 3088 4519 
L 3088 3981 
L 1259 3981 
L 1013 2750 
Q 1425 3038 1878 3038 
Q 2478 3038 2890 2622 
Q 3303 2206 3303 1553 
Q 3303 931 2941 478 
Q 2500 -78 1738 -78 
Q 1113 -78 717 272 
Q 322 622 266 1200 
z
" id="ArialMT-35" transform="scale(0.015625)"/>
       </defs>
       <use xlink:href="#ArialMT-35"/>
      </g>
     </g>
    </g>
    <g id="ytick_3">
     <g id="line2d_6">
      <g>
       <use style="stroke:#000000;stroke-width:0.8;" x="41.925" xlink:href="#m2e148cb361" y="204.925446"/>
      </g>
     </g>
     <g id="text_6">
      <!-- 10 -->
      <g transform="translate(23.803125 208.504353)scale(0.1 -0.1)">
       <defs>
        <path d="M 2384 0 
L 1822 0 
L 1822 3584 
Q 1619 3391 1289 3197 
Q 959 3003 697 2906 
L 697 3450 
Q 1169 3672 1522 3987 
Q 1875 4303 2022 4600 
L 2384 4600 
L 2384 0 
z
" id="ArialMT-31" transform="scale(0.015625)"/>
       </defs>
       <use xlink:href="#ArialMT-31"/>
       <use x="55.615234" xlink:href="#ArialMT-30"/>
      </g>
     </g>
    </g>
    <g id="ytick_4">
     <g id="line2d_7">
      <g>
       <use style="stroke:#000000;stroke-width:0.8;" x="41.925" xlink:href="#m2e148cb361" y="176.78817"/>
      </g>
     </g>
     <g id="text_7">
      <!-- 15 -->
      <g transform="translate(23.803125 180.367076)scale(0.1 -0.1)">
       <use xlink:href="#ArialMT-31"/>
       <use x="55.615234" xlink:href="#ArialMT-35"/>
      </g>
     </g>
    </g>
    <g id="ytick_5">
     <g id="line2d_8">
      <g>
       <use style="stroke:#000000;stroke-width:0.8;" x="41.925" xlink:href="#m2e148cb361" y="148.650893"/>
      </g>
     </g>
     <g id="text_8">
      <!-- 20 -->
      <g transform="translate(23.803125 152.229799)scale(0.1 -0.1)">
       <defs>
        <path d="M 3222 541 
L 3222 0 
L 194 0 
Q 188 203 259 391 
Q 375 700 629 1000 
Q 884 1300 1366 1694 
Q 2113 2306 2375 2664 
Q 2638 3022 2638 3341 
Q 2638 3675 2398 3904 
Q 2159 4134 1775 4134 
Q 1369 4134 1125 3890 
Q 881 3647 878 3216 
L 300 3275 
Q 359 3922 746 4261 
Q 1134 4600 1788 4600 
Q 2447 4600 2831 4234 
Q 3216 3869 3216 3328 
Q 3216 3053 3103 2787 
Q 2991 2522 2730 2228 
Q 2469 1934 1863 1422 
Q 1356 997 1212 845 
Q 1069 694 975 541 
L 3222 541 
z
" id="ArialMT-32" transform="scale(0.015625)"/>
       </defs>
       <use xlink:href="#ArialMT-32"/>
       <use x="55.615234" xlink:href="#ArialMT-30"/>
      </g>
     </g>
    </g>
    <g id="ytick_6">
     <g id="line2d_9">
      <g>
       <use style="stroke:#000000;stroke-width:0.8;" x="41.925" xlink:href="#m2e148cb361" y="120.513616"/>
      </g>
     </g>
     <g id="text_9">
      <!-- 25 -->
      <g transform="translate(23.803125 124.092522)scale(0.1 -0.1)">
       <use xlink:href="#ArialMT-32"/>
       <use x="55.615234" xlink:href="#ArialMT-35"/>
      </g>
     </g>
    </g>
    <g id="ytick_7">
     <g id="line2d_10">
      <g>
       <use style="stroke:#000000;stroke-width:0.8;" x="41.925" xlink:href="#m2e148cb361" y="92.376339"/>
      </g>
     </g>
     <g id="text_10">
      <!-- 30 -->
      <g transform="translate(23.803125 95.955246)scale(0.1 -0.1)">
       <defs>
        <path d="M 269 1209 
L 831 1284 
Q 928 806 1161 595 
Q 1394 384 1728 384 
Q 2125 384 2398 659 
Q 2672 934 2672 1341 
Q 2672 1728 2419 1979 
Q 2166 2231 1775 2231 
Q 1616 2231 1378 2169 
L 1441 2663 
Q 1497 2656 1531 2656 
Q 1891 2656 2178 2843 
Q 2466 3031 2466 3422 
Q 2466 3731 2256 3934 
Q 2047 4138 1716 4138 
Q 1388 4138 1169 3931 
Q 950 3725 888 3313 
L 325 3413 
Q 428 3978 793 4289 
Q 1159 4600 1703 4600 
Q 2078 4600 2393 4439 
Q 2709 4278 2876 4000 
Q 3044 3722 3044 3409 
Q 3044 3113 2884 2869 
Q 2725 2625 2413 2481 
Q 2819 2388 3044 2092 
Q 3269 1797 3269 1353 
Q 3269 753 2831 336 
Q 2394 -81 1725 -81 
Q 1122 -81 723 278 
Q 325 638 269 1209 
z
" id="ArialMT-33" transform="scale(0.015625)"/>
       </defs>
       <use xlink:href="#ArialMT-33"/>
       <use x="55.615234" xlink:href="#ArialMT-30"/>
      </g>
     </g>
    </g>
    <g id="ytick_8">
     <g id="line2d_11">
      <g>
       <use style="stroke:#000000;stroke-width:0.8;" x="41.925" xlink:href="#m2e148cb361" y="64.239062"/>
      </g>
     </g>
     <g id="text_11">
      <!-- 35 -->
      <g transform="translate(23.803125 67.817969)scale(0.1 -0.1)">
       <use xlink:href="#ArialMT-33"/>
       <use x="55.615234" xlink:href="#ArialMT-35"/>
      </g>
     </g>
    </g>
    <g id="ytick_9">
     <g id="line2d_12">
      <g>
       <use style="stroke:#000000;stroke-width:0.8;" x="41.925" xlink:href="#m2e148cb361" y="36.101786"/>
      </g>
     </g>
     <g id="text_12">
      <!-- 40 -->
      <g transform="translate(23.803125 39.680692)scale(0.1 -0.1)">
       <defs>
        <path d="M 2069 0 
L 2069 1097 
L 81 1097 
L 81 1613 
L 2172 4581 
L 2631 4581 
L 2631 1613 
L 3250 1613 
L 3250 1097 
L 2631 1097 
L 2631 0 
L 2069 0 
z
M 2069 1613 
L 2069 3678 
L 634 1613 
L 2069 1613 
z
" id="ArialMT-34" transform="scale(0.015625)"/>
       </defs>
       <use xlink:href="#ArialMT-34"/>
       <use x="55.615234" xlink:href="#ArialMT-30"/>
      </g>
     </g>
    </g>
    <g id="text_13">
     <!-- number of trials -->
     <g transform="translate(17.815625 177.478906)rotate(-90)scale(0.1 -0.1)">
      <defs>
       <path d="M 2597 0 
L 2597 488 
Q 2209 -75 1544 -75 
Q 1250 -75 995 37 
Q 741 150 617 320 
Q 494 491 444 738 
Q 409 903 409 1263 
L 409 3319 
L 972 3319 
L 972 1478 
Q 972 1038 1006 884 
Q 1059 663 1231 536 
Q 1403 409 1656 409 
Q 1909 409 2131 539 
Q 2353 669 2445 892 
Q 2538 1116 2538 1541 
L 2538 3319 
L 3100 3319 
L 3100 0 
L 2597 0 
z
" id="ArialMT-75" transform="scale(0.015625)"/>
       <path d="M 422 0 
L 422 3319 
L 925 3319 
L 925 2853 
Q 1081 3097 1340 3245 
Q 1600 3394 1931 3394 
Q 2300 3394 2536 3241 
Q 2772 3088 2869 2813 
Q 3263 3394 3894 3394 
Q 4388 3394 4653 3120 
Q 4919 2847 4919 2278 
L 4919 0 
L 4359 0 
L 4359 2091 
Q 4359 2428 4304 2576 
Q 4250 2725 4106 2815 
Q 3963 2906 3769 2906 
Q 3419 2906 3187 2673 
Q 2956 2441 2956 1928 
L 2956 0 
L 2394 0 
L 2394 2156 
Q 2394 2531 2256 2718 
Q 2119 2906 1806 2906 
Q 1569 2906 1367 2781 
Q 1166 2656 1075 2415 
Q 984 2175 984 1722 
L 984 0 
L 422 0 
z
" id="ArialMT-6d" transform="scale(0.015625)"/>
       <path id="ArialMT-20" transform="scale(0.015625)"/>
       <path d="M 1650 503 
L 1731 6 
Q 1494 -44 1306 -44 
Q 1000 -44 831 53 
Q 663 150 594 308 
Q 525 466 525 972 
L 525 2881 
L 113 2881 
L 113 3319 
L 525 3319 
L 525 4141 
L 1084 4478 
L 1084 3319 
L 1650 3319 
L 1650 2881 
L 1084 2881 
L 1084 941 
Q 1084 700 1114 631 
Q 1144 563 1211 522 
Q 1278 481 1403 481 
Q 1497 481 1650 503 
z
" id="ArialMT-74" transform="scale(0.015625)"/>
       <path d="M 197 991 
L 753 1078 
Q 800 744 1014 566 
Q 1228 388 1613 388 
Q 2000 388 2187 545 
Q 2375 703 2375 916 
Q 2375 1106 2209 1216 
Q 2094 1291 1634 1406 
Q 1016 1563 777 1677 
Q 538 1791 414 1992 
Q 291 2194 291 2438 
Q 291 2659 392 2848 
Q 494 3038 669 3163 
Q 800 3259 1026 3326 
Q 1253 3394 1513 3394 
Q 1903 3394 2198 3281 
Q 2494 3169 2634 2976 
Q 2775 2784 2828 2463 
L 2278 2388 
Q 2241 2644 2061 2787 
Q 1881 2931 1553 2931 
Q 1166 2931 1000 2803 
Q 834 2675 834 2503 
Q 834 2394 903 2306 
Q 972 2216 1119 2156 
Q 1203 2125 1616 2013 
Q 2213 1853 2448 1751 
Q 2684 1650 2818 1456 
Q 2953 1263 2953 975 
Q 2953 694 2789 445 
Q 2625 197 2315 61 
Q 2006 -75 1616 -75 
Q 969 -75 630 194 
Q 291 463 197 991 
z
" id="ArialMT-73" transform="scale(0.015625)"/>
      </defs>
      <use xlink:href="#ArialMT-6e"/>
      <use x="55.615234" xlink:href="#ArialMT-75"/>
      <use x="111.230469" xlink:href="#ArialMT-6d"/>
      <use x="194.53125" xlink:href="#ArialMT-62"/>
      <use x="250.146484" xlink:href="#ArialMT-65"/>
      <use x="305.761719" xlink:href="#ArialMT-72"/>
      <use x="339.0625" xlink:href="#ArialMT-20"/>
      <use x="366.845703" xlink:href="#ArialMT-6f"/>
      <use x="422.460938" xlink:href="#ArialMT-66"/>
      <use x="450.244141" xlink:href="#ArialMT-20"/>
      <use x="478.027344" xlink:href="#ArialMT-74"/>
      <use x="505.810547" xlink:href="#ArialMT-72"/>
      <use x="539.111328" xlink:href="#ArialMT-69"/>
      <use x="561.328125" xlink:href="#ArialMT-61"/>
      <use x="616.943359" xlink:href="#ArialMT-6c"/>
      <use x="639.160156" xlink:href="#ArialMT-73"/>
     </g>
    </g>
   </g>
   <g id="patch_9">
    <path d="M 41.925 261.2 
L 41.925 24.846875 
" style="fill:none;stroke:#000000;stroke-linecap:square;stroke-linejoin:miter;stroke-width:0.8;"/>
   </g>
   <g id="patch_10">
    <path d="M 316.174597 261.2 
L 316.174597 24.846875 
" style="fill:none;stroke:#000000;stroke-linecap:square;stroke-linejoin:miter;stroke-width:0.8;"/>
   </g>
   <g id="patch_11">
    <path d="M 41.925 261.2 
L 316.174597 261.2 
" style="fill:none;stroke:#000000;stroke-linecap:square;stroke-linejoin:miter;stroke-width:0.8;"/>
   </g>
   <g id="patch_12">
    <path d="M 41.925 24.846875 
L 316.174597 24.846875 
" style="fill:none;stroke:#000000;stroke-linecap:square;stroke-linejoin:miter;stroke-width:0.8;"/>
   </g>
   <g id="text_14">
    <!-- 32.4% -->
    <g transform="translate(56.474186 227.282743)scale(0.1 -0.1)">
     <defs>
      <path d="M 581 0 
L 581 641 
L 1222 641 
L 1222 0 
L 581 0 
z
" id="ArialMT-2e" transform="scale(0.015625)"/>
      <path d="M 372 3481 
Q 372 3972 619 4315 
Q 866 4659 1334 4659 
Q 1766 4659 2048 4351 
Q 2331 4044 2331 3447 
Q 2331 2866 2045 2552 
Q 1759 2238 1341 2238 
Q 925 2238 648 2547 
Q 372 2856 372 3481 
z
M 1350 4272 
Q 1141 4272 1002 4090 
Q 863 3909 863 3425 
Q 863 2984 1003 2804 
Q 1144 2625 1350 2625 
Q 1563 2625 1702 2806 
Q 1841 2988 1841 3469 
Q 1841 3913 1700 4092 
Q 1559 4272 1350 4272 
z
M 1353 -169 
L 3859 4659 
L 4316 4659 
L 1819 -169 
L 1353 -169 
z
M 3334 1075 
Q 3334 1569 3581 1911 
Q 3828 2253 4300 2253 
Q 4731 2253 5014 1945 
Q 5297 1638 5297 1041 
Q 5297 459 5011 145 
Q 4725 -169 4303 -169 
Q 3888 -169 3611 142 
Q 3334 453 3334 1075 
z
M 4316 1866 
Q 4103 1866 3964 1684 
Q 3825 1503 3825 1019 
Q 3825 581 3965 400 
Q 4106 219 4313 219 
Q 4528 219 4667 400 
Q 4806 581 4806 1063 
Q 4806 1506 4665 1686 
Q 4525 1866 4316 1866 
z
" id="ArialMT-25" transform="scale(0.015625)"/>
     </defs>
     <use xlink:href="#ArialMT-33"/>
     <use x="55.615234" xlink:href="#ArialMT-32"/>
     <use x="111.230469" xlink:href="#ArialMT-2e"/>
     <use x="139.013672" xlink:href="#ArialMT-34"/>
     <use x="194.628906" xlink:href="#ArialMT-25"/>
    </g>
   </g>
   <g id="text_15">
    <!-- 0.0% -->
    <g transform="translate(167.653705 263.785156)scale(0.1 -0.1)">
     <use xlink:href="#ArialMT-30"/>
     <use x="55.615234" xlink:href="#ArialMT-2e"/>
     <use x="83.398438" xlink:href="#ArialMT-30"/>
     <use x="139.013672" xlink:href="#ArialMT-25"/>
    </g>
   </g>
   <g id="text_16">
    <!-- 0.0% -->
    <g transform="translate(276.052755 263.785156)scale(0.1 -0.1)">
     <use xlink:href="#ArialMT-30"/>
     <use x="55.615234" xlink:href="#ArialMT-2e"/>
     <use x="83.398438" xlink:href="#ArialMT-30"/>
     <use x="139.013672" xlink:href="#ArialMT-25"/>
    </g>
   </g>
   <g id="text_17">
    <!-- 67.6% -->
    <g transform="translate(56.474186 114.733636)scale(0.1 -0.1)">
     <defs>
      <path d="M 3184 3459 
L 2625 3416 
Q 2550 3747 2413 3897 
Q 2184 4138 1850 4138 
Q 1581 4138 1378 3988 
Q 1113 3794 959 3422 
Q 806 3050 800 2363 
Q 1003 2672 1297 2822 
Q 1591 2972 1913 2972 
Q 2475 2972 2870 2558 
Q 3266 2144 3266 1488 
Q 3266 1056 3080 686 
Q 2894 316 2569 119 
Q 2244 -78 1831 -78 
Q 1128 -78 684 439 
Q 241 956 241 2144 
Q 241 3472 731 4075 
Q 1159 4600 1884 4600 
Q 2425 4600 2770 4297 
Q 3116 3994 3184 3459 
z
M 888 1484 
Q 888 1194 1011 928 
Q 1134 663 1356 523 
Q 1578 384 1822 384 
Q 2178 384 2434 671 
Q 2691 959 2691 1453 
Q 2691 1928 2437 2201 
Q 2184 2475 1800 2475 
Q 1419 2475 1153 2201 
Q 888 1928 888 1484 
z
" id="ArialMT-36" transform="scale(0.015625)"/>
      <path d="M 303 3981 
L 303 4522 
L 3269 4522 
L 3269 4084 
Q 2831 3619 2401 2847 
Q 1972 2075 1738 1259 
Q 1569 684 1522 0 
L 944 0 
Q 953 541 1156 1306 
Q 1359 2072 1739 2783 
Q 2119 3494 2547 3981 
L 303 3981 
z
" id="ArialMT-37" transform="scale(0.015625)"/>
     </defs>
     <use xlink:href="#ArialMT-36"/>
     <use x="55.615234" xlink:href="#ArialMT-37"/>
     <use x="111.230469" xlink:href="#ArialMT-2e"/>
     <use x="139.013672" xlink:href="#ArialMT-36"/>
     <use x="194.628906" xlink:href="#ArialMT-25"/>
    </g>
   </g>
   <g id="text_18">
    <!-- 100.0% -->
    <g transform="translate(162.092767 151.236049)scale(0.1 -0.1)">
     <use xlink:href="#ArialMT-31"/>
     <use x="55.615234" xlink:href="#ArialMT-30"/>
     <use x="111.230469" xlink:href="#ArialMT-30"/>
     <use x="166.845703" xlink:href="#ArialMT-2e"/>
     <use x="194.628906" xlink:href="#ArialMT-30"/>
     <use x="250.244141" xlink:href="#ArialMT-25"/>
    </g>
   </g>
   <g id="text_19">
    <!-- 100.0% -->
    <g transform="translate(270.491817 151.236049)scale(0.1 -0.1)">
     <use xlink:href="#ArialMT-31"/>
     <use x="55.615234" xlink:href="#ArialMT-30"/>
     <use x="111.230469" xlink:href="#ArialMT-30"/>
     <use x="166.845703" xlink:href="#ArialMT-2e"/>
     <use x="194.628906" xlink:href="#ArialMT-30"/>
     <use x="250.244141" xlink:href="#ArialMT-25"/>
    </g>
   </g>
   <g id="text_20">
    <!-- Success rate -->
    <g transform="translate(144.369798 18.846875)scale(0.12 -0.12)">
     <defs>
      <path d="M 288 1472 
L 859 1522 
Q 900 1178 1048 958 
Q 1197 738 1509 602 
Q 1822 466 2213 466 
Q 2559 466 2825 569 
Q 3091 672 3220 851 
Q 3350 1031 3350 1244 
Q 3350 1459 3225 1620 
Q 3100 1781 2813 1891 
Q 2628 1963 1997 2114 
Q 1366 2266 1113 2400 
Q 784 2572 623 2826 
Q 463 3081 463 3397 
Q 463 3744 659 4045 
Q 856 4347 1234 4503 
Q 1613 4659 2075 4659 
Q 2584 4659 2973 4495 
Q 3363 4331 3572 4012 
Q 3781 3694 3797 3291 
L 3216 3247 
Q 3169 3681 2898 3903 
Q 2628 4125 2100 4125 
Q 1550 4125 1298 3923 
Q 1047 3722 1047 3438 
Q 1047 3191 1225 3031 
Q 1400 2872 2139 2705 
Q 2878 2538 3153 2413 
Q 3553 2228 3743 1945 
Q 3934 1663 3934 1294 
Q 3934 928 3725 604 
Q 3516 281 3123 101 
Q 2731 -78 2241 -78 
Q 1619 -78 1198 103 
Q 778 284 539 648 
Q 300 1013 288 1472 
z
" id="ArialMT-53" transform="scale(0.015625)"/>
     </defs>
     <use xlink:href="#ArialMT-53"/>
     <use x="66.699219" xlink:href="#ArialMT-75"/>
     <use x="122.314453" xlink:href="#ArialMT-63"/>
     <use x="172.314453" xlink:href="#ArialMT-63"/>
     <use x="222.314453" xlink:href="#ArialMT-65"/>
     <use x="277.929688" xlink:href="#ArialMT-73"/>
     <use x="327.929688" xlink:href="#ArialMT-73"/>
     <use x="377.929688" xlink:href="#ArialMT-20"/>
     <use x="405.712891" xlink:href="#ArialMT-72"/>
     <use x="439.013672" xlink:href="#ArialMT-61"/>
     <use x="494.628906" xlink:href="#ArialMT-74"/>
     <use x="522.412109" xlink:href="#ArialMT-65"/>
    </g>
   </g>
  </g>
  <g id="axes_2">
   <g id="patch_13">
    <path d="M 376.158333 261.2 
L 650.40793 261.2 
L 650.40793 24.846875 
L 376.158333 24.846875 
z
" style="fill:#ffffff;"/>
   </g>
   <g id="patch_14">
    <path clip-path="url(#pd09eba34fa)" d="M 388.624224 261.2 
L 417.391664 261.2 
L 417.391664 168.065493 
L 388.624224 168.065493 
z
" style="fill:#caffbf;"/>
   </g>
   <g id="patch_15">
    <path clip-path="url(#pd09eba34fa)" d="M 0 0 
z
" style="fill:#caffbf;"/>
   </g>
   <g id="patch_16">
    <path clip-path="url(#pd09eba34fa)" d="M 0 0 
z
" style="fill:#caffbf;"/>
   </g>
   <g id="patch_17">
    <path clip-path="url(#pd09eba34fa)" d="M 417.391664 261.2 
L 446.159105 261.2 
L 446.159105 188.84491 
L 417.391664 188.84491 
z
" style="fill:#ffadad;"/>
   </g>
   <g id="patch_18">
    <path clip-path="url(#pd09eba34fa)" d="M 513.283132 261.2 
L 542.050572 261.2 
L 542.050572 259.380064 
L 513.283132 259.380064 
z
" style="fill:#ffadad;"/>
   </g>
   <g id="patch_19">
    <path clip-path="url(#pd09eba34fa)" d="M 609.174599 261.2 
L 637.94204 261.2 
L 637.94204 249.84327 
L 609.174599 249.84327 
z
" style="fill:#ffadad;"/>
   </g>
   <g id="matplotlib.axis_3">
    <g id="xtick_4">
     <g id="line2d_13">
      <g>
       <use style="stroke:#000000;stroke-width:0.8;" x="417.391664" xlink:href="#ma9069f75e3" y="261.2"/>
      </g>
     </g>
     <g id="text_21">
      <!-- nonlinear -->
      <g transform="translate(396.822133 275.357813)scale(0.1 -0.1)">
       <use xlink:href="#ArialMT-6e"/>
       <use x="55.615234" xlink:href="#ArialMT-6f"/>
       <use x="111.230469" xlink:href="#ArialMT-6e"/>
       <use x="166.845703" xlink:href="#ArialMT-6c"/>
       <use x="189.0625" xlink:href="#ArialMT-69"/>
       <use x="211.279297" xlink:href="#ArialMT-6e"/>
       <use x="266.894531" xlink:href="#ArialMT-65"/>
       <use x="322.509766" xlink:href="#ArialMT-61"/>
       <use x="378.125" xlink:href="#ArialMT-72"/>
      </g>
     </g>
    </g>
    <g id="xtick_5">
     <g id="line2d_14">
      <g>
       <use style="stroke:#000000;stroke-width:0.8;" x="513.283132" xlink:href="#ma9069f75e3" y="261.2"/>
      </g>
     </g>
     <g id="text_22">
      <!-- linear_forward -->
      <g transform="translate(481.603444 275.479688)scale(0.1 -0.1)">
       <use xlink:href="#ArialMT-6c"/>
       <use x="22.216797" xlink:href="#ArialMT-69"/>
       <use x="44.433594" xlink:href="#ArialMT-6e"/>
       <use x="100.048828" xlink:href="#ArialMT-65"/>
       <use x="155.664062" xlink:href="#ArialMT-61"/>
       <use x="211.279297" xlink:href="#ArialMT-72"/>
       <use x="244.580078" xlink:href="#ArialMT-5f"/>
       <use x="300.195312" xlink:href="#ArialMT-66"/>
       <use x="327.978516" xlink:href="#ArialMT-6f"/>
       <use x="383.59375" xlink:href="#ArialMT-72"/>
       <use x="416.894531" xlink:href="#ArialMT-77"/>
       <use x="489.111328" xlink:href="#ArialMT-61"/>
       <use x="544.726562" xlink:href="#ArialMT-72"/>
       <use x="578.027344" xlink:href="#ArialMT-64"/>
      </g>
     </g>
    </g>
    <g id="xtick_6">
     <g id="line2d_15">
      <g>
       <use style="stroke:#000000;stroke-width:0.8;" x="609.174599" xlink:href="#ma9069f75e3" y="261.2"/>
      </g>
     </g>
     <g id="text_23">
      <!-- linear_backward -->
      <g transform="translate(572.768349 275.357813)scale(0.1 -0.1)">
       <use xlink:href="#ArialMT-6c"/>
       <use x="22.216797" xlink:href="#ArialMT-69"/>
       <use x="44.433594" xlink:href="#ArialMT-6e"/>
       <use x="100.048828" xlink:href="#ArialMT-65"/>
       <use x="155.664062" xlink:href="#ArialMT-61"/>
       <use x="211.279297" xlink:href="#ArialMT-72"/>
       <use x="244.580078" xlink:href="#ArialMT-5f"/>
       <use x="300.195312" xlink:href="#ArialMT-62"/>
       <use x="355.810547" xlink:href="#ArialMT-61"/>
       <use x="411.425781" xlink:href="#ArialMT-63"/>
       <use x="461.425781" xlink:href="#ArialMT-6b"/>
       <use x="511.425781" xlink:href="#ArialMT-77"/>
       <use x="583.642578" xlink:href="#ArialMT-61"/>
       <use x="639.257812" xlink:href="#ArialMT-72"/>
       <use x="672.558594" xlink:href="#ArialMT-64"/>
      </g>
     </g>
    </g>
   </g>
   <g id="matplotlib.axis_4">
    <g id="ytick_10">
     <g id="line2d_16">
      <g>
       <use style="stroke:#000000;stroke-width:0.8;" x="376.158333" xlink:href="#m2e148cb361" y="261.2"/>
      </g>
     </g>
     <g id="text_24">
      <!-- 0 -->
      <g transform="translate(363.597396 264.778906)scale(0.1 -0.1)">
       <use xlink:href="#ArialMT-30"/>
      </g>
     </g>
    </g>
    <g id="ytick_11">
     <g id="line2d_17">
      <g>
       <use style="stroke:#000000;stroke-width:0.8;" x="376.158333" xlink:href="#m2e148cb361" y="233.062723"/>
      </g>
     </g>
     <g id="text_25">
      <!-- 50 -->
      <g transform="translate(358.036458 236.641629)scale(0.1 -0.1)">
       <use xlink:href="#ArialMT-35"/>
       <use x="55.615234" xlink:href="#ArialMT-30"/>
      </g>
     </g>
    </g>
    <g id="ytick_12">
     <g id="line2d_18">
      <g>
       <use style="stroke:#000000;stroke-width:0.8;" x="376.158333" xlink:href="#m2e148cb361" y="204.925446"/>
      </g>
     </g>
     <g id="text_26">
      <!-- 100 -->
      <g transform="translate(352.475521 208.504353)scale(0.1 -0.1)">
       <use xlink:href="#ArialMT-31"/>
       <use x="55.615234" xlink:href="#ArialMT-30"/>
       <use x="111.230469" xlink:href="#ArialMT-30"/>
      </g>
     </g>
    </g>
    <g id="ytick_13">
     <g id="line2d_19">
      <g>
       <use style="stroke:#000000;stroke-width:0.8;" x="376.158333" xlink:href="#m2e148cb361" y="176.78817"/>
      </g>
     </g>
     <g id="text_27">
      <!-- 150 -->
      <g transform="translate(352.475521 180.367076)scale(0.1 -0.1)">
       <use xlink:href="#ArialMT-31"/>
       <use x="55.615234" xlink:href="#ArialMT-35"/>
       <use x="111.230469" xlink:href="#ArialMT-30"/>
      </g>
     </g>
    </g>
    <g id="ytick_14">
     <g id="line2d_20">
      <g>
       <use style="stroke:#000000;stroke-width:0.8;" x="376.158333" xlink:href="#m2e148cb361" y="148.650893"/>
      </g>
     </g>
     <g id="text_28">
      <!-- 200 -->
      <g transform="translate(352.475521 152.229799)scale(0.1 -0.1)">
       <use xlink:href="#ArialMT-32"/>
       <use x="55.615234" xlink:href="#ArialMT-30"/>
       <use x="111.230469" xlink:href="#ArialMT-30"/>
      </g>
     </g>
    </g>
    <g id="ytick_15">
     <g id="line2d_21">
      <g>
       <use style="stroke:#000000;stroke-width:0.8;" x="376.158333" xlink:href="#m2e148cb361" y="120.513616"/>
      </g>
     </g>
     <g id="text_29">
      <!-- 250 -->
      <g transform="translate(352.475521 124.092522)scale(0.1 -0.1)">
       <use xlink:href="#ArialMT-32"/>
       <use x="55.615234" xlink:href="#ArialMT-35"/>
       <use x="111.230469" xlink:href="#ArialMT-30"/>
      </g>
     </g>
    </g>
    <g id="ytick_16">
     <g id="line2d_22">
      <g>
       <use style="stroke:#000000;stroke-width:0.8;" x="376.158333" xlink:href="#m2e148cb361" y="92.376339"/>
      </g>
     </g>
     <g id="text_30">
      <!-- 300 -->
      <g transform="translate(352.475521 95.955246)scale(0.1 -0.1)">
       <use xlink:href="#ArialMT-33"/>
       <use x="55.615234" xlink:href="#ArialMT-30"/>
       <use x="111.230469" xlink:href="#ArialMT-30"/>
      </g>
     </g>
    </g>
    <g id="ytick_17">
     <g id="line2d_23">
      <g>
       <use style="stroke:#000000;stroke-width:0.8;" x="376.158333" xlink:href="#m2e148cb361" y="64.239062"/>
      </g>
     </g>
     <g id="text_31">
      <!-- 350 -->
      <g transform="translate(352.475521 67.817969)scale(0.1 -0.1)">
       <use xlink:href="#ArialMT-33"/>
       <use x="55.615234" xlink:href="#ArialMT-35"/>
       <use x="111.230469" xlink:href="#ArialMT-30"/>
      </g>
     </g>
    </g>
    <g id="ytick_18">
     <g id="line2d_24">
      <g>
       <use style="stroke:#000000;stroke-width:0.8;" x="376.158333" xlink:href="#m2e148cb361" y="36.101786"/>
      </g>
     </g>
     <g id="text_32">
      <!-- 400 -->
      <g transform="translate(352.475521 39.680692)scale(0.1 -0.1)">
       <use xlink:href="#ArialMT-34"/>
       <use x="55.615234" xlink:href="#ArialMT-30"/>
       <use x="111.230469" xlink:href="#ArialMT-30"/>
      </g>
     </g>
    </g>
    <g id="text_33">
     <!-- planning time (s) -->
     <g transform="translate(346.370833 179.98125)rotate(-90)scale(0.1 -0.1)">
      <defs>
       <path d="M 422 -1272 
L 422 3319 
L 934 3319 
L 934 2888 
Q 1116 3141 1344 3267 
Q 1572 3394 1897 3394 
Q 2322 3394 2647 3175 
Q 2972 2956 3137 2557 
Q 3303 2159 3303 1684 
Q 3303 1175 3120 767 
Q 2938 359 2589 142 
Q 2241 -75 1856 -75 
Q 1575 -75 1351 44 
Q 1128 163 984 344 
L 984 -1272 
L 422 -1272 
z
M 931 1641 
Q 931 1000 1190 694 
Q 1450 388 1819 388 
Q 2194 388 2461 705 
Q 2728 1022 2728 1688 
Q 2728 2322 2467 2637 
Q 2206 2953 1844 2953 
Q 1484 2953 1207 2617 
Q 931 2281 931 1641 
z
" id="ArialMT-70" transform="scale(0.015625)"/>
       <path d="M 319 -275 
L 866 -356 
Q 900 -609 1056 -725 
Q 1266 -881 1628 -881 
Q 2019 -881 2231 -725 
Q 2444 -569 2519 -288 
Q 2563 -116 2559 434 
Q 2191 0 1641 0 
Q 956 0 581 494 
Q 206 988 206 1678 
Q 206 2153 378 2554 
Q 550 2956 876 3175 
Q 1203 3394 1644 3394 
Q 2231 3394 2613 2919 
L 2613 3319 
L 3131 3319 
L 3131 450 
Q 3131 -325 2973 -648 
Q 2816 -972 2473 -1159 
Q 2131 -1347 1631 -1347 
Q 1038 -1347 672 -1080 
Q 306 -813 319 -275 
z
M 784 1719 
Q 784 1066 1043 766 
Q 1303 466 1694 466 
Q 2081 466 2343 764 
Q 2606 1063 2606 1700 
Q 2606 2309 2336 2618 
Q 2066 2928 1684 2928 
Q 1309 2928 1046 2623 
Q 784 2319 784 1719 
z
" id="ArialMT-67" transform="scale(0.015625)"/>
       <path d="M 1497 -1347 
Q 1031 -759 709 28 
Q 388 816 388 1659 
Q 388 2403 628 3084 
Q 909 3875 1497 4659 
L 1900 4659 
Q 1522 4009 1400 3731 
Q 1209 3300 1100 2831 
Q 966 2247 966 1656 
Q 966 153 1900 -1347 
L 1497 -1347 
z
" id="ArialMT-28" transform="scale(0.015625)"/>
       <path d="M 791 -1347 
L 388 -1347 
Q 1322 153 1322 1656 
Q 1322 2244 1188 2822 
Q 1081 3291 891 3722 
Q 769 4003 388 4659 
L 791 4659 
Q 1378 3875 1659 3084 
Q 1900 2403 1900 1659 
Q 1900 816 1576 28 
Q 1253 -759 791 -1347 
z
" id="ArialMT-29" transform="scale(0.015625)"/>
      </defs>
      <use xlink:href="#ArialMT-70"/>
      <use x="55.615234" xlink:href="#ArialMT-6c"/>
      <use x="77.832031" xlink:href="#ArialMT-61"/>
      <use x="133.447266" xlink:href="#ArialMT-6e"/>
      <use x="189.0625" xlink:href="#ArialMT-6e"/>
      <use x="244.677734" xlink:href="#ArialMT-69"/>
      <use x="266.894531" xlink:href="#ArialMT-6e"/>
      <use x="322.509766" xlink:href="#ArialMT-67"/>
      <use x="378.125" xlink:href="#ArialMT-20"/>
      <use x="405.908203" xlink:href="#ArialMT-74"/>
      <use x="433.691406" xlink:href="#ArialMT-69"/>
      <use x="455.908203" xlink:href="#ArialMT-6d"/>
      <use x="539.208984" xlink:href="#ArialMT-65"/>
      <use x="594.824219" xlink:href="#ArialMT-20"/>
      <use x="622.607422" xlink:href="#ArialMT-28"/>
      <use x="655.908203" xlink:href="#ArialMT-73"/>
      <use x="705.908203" xlink:href="#ArialMT-29"/>
     </g>
    </g>
   </g>
   <g id="LineCollection_1">
    <path clip-path="url(#pd09eba34fa)" d="M 403.007944 210.098435 
L 403.007944 85.114181 
" style="fill:none;stroke:#000000;stroke-width:0.5;"/>
    <path clip-path="url(#pd09eba34fa)" style="fill:none;stroke:#000000;stroke-width:0.5;"/>
    <path clip-path="url(#pd09eba34fa)" style="fill:none;stroke:#000000;stroke-width:0.5;"/>
   </g>
   <g id="LineCollection_2">
    <path clip-path="url(#pd09eba34fa)" d="M 431.775384 257.749157 
L 431.775384 139.912606 
" style="fill:none;stroke:#000000;stroke-width:0.5;"/>
    <path clip-path="url(#pd09eba34fa)" d="M 527.666852 260.614656 
L 527.666852 253.272677 
" style="fill:none;stroke:#000000;stroke-width:0.5;"/>
    <path clip-path="url(#pd09eba34fa)" d="M 623.558319 257.791181 
L 623.558319 220.207719 
" style="fill:none;stroke:#000000;stroke-width:0.5;"/>
   </g>
   <g id="line2d_25">
    <defs>
     <path d="M 2 0 
L -2 -0 
" id="mb83ee5a853" style="stroke:#000000;"/>
    </defs>
    <g clip-path="url(#pd09eba34fa)">
     <use style="stroke:#000000;" x="403.007944" xlink:href="#mb83ee5a853" y="210.098435"/>
    </g>
   </g>
   <g id="line2d_26">
    <g clip-path="url(#pd09eba34fa)">
     <use style="stroke:#000000;" x="403.007944" xlink:href="#mb83ee5a853" y="85.114181"/>
    </g>
   </g>
   <g id="line2d_27">
    <g clip-path="url(#pd09eba34fa)">
     <use style="stroke:#000000;" x="431.775384" xlink:href="#mb83ee5a853" y="257.749157"/>
     <use style="stroke:#000000;" x="527.666852" xlink:href="#mb83ee5a853" y="260.614656"/>
     <use style="stroke:#000000;" x="623.558319" xlink:href="#mb83ee5a853" y="257.791181"/>
    </g>
   </g>
   <g id="line2d_28">
    <g clip-path="url(#pd09eba34fa)">
     <use style="stroke:#000000;" x="431.775384" xlink:href="#mb83ee5a853" y="139.912606"/>
     <use style="stroke:#000000;" x="527.666852" xlink:href="#mb83ee5a853" y="253.272677"/>
     <use style="stroke:#000000;" x="623.558319" xlink:href="#mb83ee5a853" y="220.207719"/>
    </g>
   </g>
   <g id="patch_20">
    <path d="M 376.158333 261.2 
L 376.158333 24.846875 
" style="fill:none;stroke:#000000;stroke-linecap:square;stroke-linejoin:miter;stroke-width:0.8;"/>
   </g>
   <g id="patch_21">
    <path d="M 650.40793 261.2 
L 650.40793 24.846875 
" style="fill:none;stroke:#000000;stroke-linecap:square;stroke-linejoin:miter;stroke-width:0.8;"/>
   </g>
   <g id="patch_22">
    <path d="M 376.158333 261.2 
L 650.40793 261.2 
" style="fill:none;stroke:#000000;stroke-linecap:square;stroke-linejoin:miter;stroke-width:0.8;"/>
   </g>
   <g id="patch_23">
    <path d="M 376.158333 24.846875 
L 650.40793 24.846875 
" style="fill:none;stroke:#000000;stroke-linecap:square;stroke-linejoin:miter;stroke-width:0.8;"/>
   </g>
   <g id="text_34">
    <!-- Average runtime for each attempt -->
    <g transform="translate(424.350007 18.846875)scale(0.12 -0.12)">
     <defs>
      <path d="M -9 0 
L 1750 4581 
L 2403 4581 
L 4278 0 
L 3588 0 
L 3053 1388 
L 1138 1388 
L 634 0 
L -9 0 
z
M 1313 1881 
L 2866 1881 
L 2388 3150 
Q 2169 3728 2063 4100 
Q 1975 3659 1816 3225 
L 1313 1881 
z
" id="ArialMT-41" transform="scale(0.015625)"/>
      <path d="M 1344 0 
L 81 3319 
L 675 3319 
L 1388 1331 
Q 1503 1009 1600 663 
Q 1675 925 1809 1294 
L 2547 3319 
L 3125 3319 
L 1869 0 
L 1344 0 
z
" id="ArialMT-76" transform="scale(0.015625)"/>
      <path d="M 422 0 
L 422 4581 
L 984 4581 
L 984 2938 
Q 1378 3394 1978 3394 
Q 2347 3394 2619 3248 
Q 2891 3103 3008 2847 
Q 3125 2591 3125 2103 
L 3125 0 
L 2563 0 
L 2563 2103 
Q 2563 2525 2380 2717 
Q 2197 2909 1863 2909 
Q 1613 2909 1392 2779 
Q 1172 2650 1078 2428 
Q 984 2206 984 1816 
L 984 0 
L 422 0 
z
" id="ArialMT-68" transform="scale(0.015625)"/>
     </defs>
     <use xlink:href="#ArialMT-41"/>
     <use x="64.949219" xlink:href="#ArialMT-76"/>
     <use x="114.949219" xlink:href="#ArialMT-65"/>
     <use x="170.564453" xlink:href="#ArialMT-72"/>
     <use x="203.865234" xlink:href="#ArialMT-61"/>
     <use x="259.480469" xlink:href="#ArialMT-67"/>
     <use x="315.095703" xlink:href="#ArialMT-65"/>
     <use x="370.710938" xlink:href="#ArialMT-20"/>
     <use x="398.494141" xlink:href="#ArialMT-72"/>
     <use x="431.794922" xlink:href="#ArialMT-75"/>
     <use x="487.410156" xlink:href="#ArialMT-6e"/>
     <use x="543.025391" xlink:href="#ArialMT-74"/>
     <use x="570.808594" xlink:href="#ArialMT-69"/>
     <use x="593.025391" xlink:href="#ArialMT-6d"/>
     <use x="676.326172" xlink:href="#ArialMT-65"/>
     <use x="731.941406" xlink:href="#ArialMT-20"/>
     <use x="759.724609" xlink:href="#ArialMT-66"/>
     <use x="787.507812" xlink:href="#ArialMT-6f"/>
     <use x="843.123047" xlink:href="#ArialMT-72"/>
     <use x="876.423828" xlink:href="#ArialMT-20"/>
     <use x="904.207031" xlink:href="#ArialMT-65"/>
     <use x="959.822266" xlink:href="#ArialMT-61"/>
     <use x="1015.4375" xlink:href="#ArialMT-63"/>
     <use x="1065.4375" xlink:href="#ArialMT-68"/>
     <use x="1121.052734" xlink:href="#ArialMT-20"/>
     <use x="1148.835938" xlink:href="#ArialMT-61"/>
     <use x="1204.451172" xlink:href="#ArialMT-74"/>
     <use x="1232.234375" xlink:href="#ArialMT-74"/>
     <use x="1260.017578" xlink:href="#ArialMT-65"/>
     <use x="1315.632812" xlink:href="#ArialMT-6d"/>
     <use x="1398.933594" xlink:href="#ArialMT-70"/>
     <use x="1454.548828" xlink:href="#ArialMT-74"/>
    </g>
   </g>
   <g id="legend_1">
    <g id="patch_24">
     <path d="M 461.162038 61.1375 
L 565.404226 61.1375 
Q 567.404226 61.1375 567.404226 59.1375 
L 567.404226 31.846875 
Q 567.404226 29.846875 565.404226 29.846875 
L 461.162038 29.846875 
Q 459.162038 29.846875 459.162038 31.846875 
L 459.162038 59.1375 
Q 459.162038 61.1375 461.162038 61.1375 
z
" style="fill:#ffffff;opacity:0.8;stroke:#cccccc;stroke-linejoin:miter;"/>
    </g>
    <g id="patch_25">
     <path d="M 463.162038 41.004687 
L 483.162038 41.004687 
L 483.162038 34.004687 
L 463.162038 34.004687 
z
" style="fill:#caffbf;"/>
    </g>
    <g id="text_35">
     <!-- success runtime -->
     <g transform="translate(491.162038 41.004687)scale(0.1 -0.1)">
      <use xlink:href="#ArialMT-73"/>
      <use x="50" xlink:href="#ArialMT-75"/>
      <use x="105.615234" xlink:href="#ArialMT-63"/>
      <use x="155.615234" xlink:href="#ArialMT-63"/>
      <use x="205.615234" xlink:href="#ArialMT-65"/>
      <use x="261.230469" xlink:href="#ArialMT-73"/>
      <use x="311.230469" xlink:href="#ArialMT-73"/>
      <use x="361.230469" xlink:href="#ArialMT-20"/>
      <use x="389.013672" xlink:href="#ArialMT-72"/>
      <use x="422.314453" xlink:href="#ArialMT-75"/>
      <use x="477.929688" xlink:href="#ArialMT-6e"/>
      <use x="533.544922" xlink:href="#ArialMT-74"/>
      <use x="561.328125" xlink:href="#ArialMT-69"/>
      <use x="583.544922" xlink:href="#ArialMT-6d"/>
      <use x="666.845703" xlink:href="#ArialMT-65"/>
     </g>
    </g>
    <g id="patch_26">
     <path d="M 463.162038 55.15 
L 483.162038 55.15 
L 483.162038 48.15 
L 463.162038 48.15 
z
" style="fill:#ffadad;"/>
    </g>
    <g id="text_36">
     <!-- failure runtime -->
     <g transform="translate(491.162038 55.15)scale(0.1 -0.1)">
      <use xlink:href="#ArialMT-66"/>
      <use x="27.783203" xlink:href="#ArialMT-61"/>
      <use x="83.398438" xlink:href="#ArialMT-69"/>
      <use x="105.615234" xlink:href="#ArialMT-6c"/>
      <use x="127.832031" xlink:href="#ArialMT-75"/>
      <use x="183.447266" xlink:href="#ArialMT-72"/>
      <use x="216.748047" xlink:href="#ArialMT-65"/>
      <use x="272.363281" xlink:href="#ArialMT-20"/>
      <use x="300.146484" xlink:href="#ArialMT-72"/>
      <use x="333.447266" xlink:href="#ArialMT-75"/>
      <use x="389.0625" xlink:href="#ArialMT-6e"/>
      <use x="444.677734" xlink:href="#ArialMT-74"/>
      <use x="472.460938" xlink:href="#ArialMT-69"/>
      <use x="494.677734" xlink:href="#ArialMT-6d"/>
      <use x="577.978516" xlink:href="#ArialMT-65"/>
     </g>
    </g>
   </g>
  </g>
  <g id="axes_3">
   <g id="patch_27">
    <path d="M 710.391667 261.2 
L 984.641264 261.2 
L 984.641264 24.846875 
L 710.391667 24.846875 
z
" style="fill:#ffffff;"/>
   </g>
   <g id="patch_28">
    <path clip-path="url(#p45e1f9d124)" d="M 722.857557 261.2 
L 755.377272 261.2 
L 755.377272 232.994369 
L 722.857557 232.994369 
z
" style="fill:#a0c4ff;"/>
   </g>
   <g id="patch_29">
    <path clip-path="url(#p45e1f9d124)" d="M 831.256608 261.2 
L 863.776323 261.2 
L 863.776323 58.611607 
L 831.256608 58.611607 
z
" style="fill:#a0c4ff;"/>
   </g>
   <g id="patch_30">
    <path clip-path="url(#p45e1f9d124)" d="M 939.655658 261.2 
L 972.175373 261.2 
L 972.175373 58.611607 
L 939.655658 58.611607 
z
" style="fill:#a0c4ff;"/>
   </g>
   <g id="matplotlib.axis_5">
    <g id="xtick_7">
     <g id="line2d_29">
      <g>
       <use style="stroke:#000000;stroke-width:0.8;" x="739.117415" xlink:href="#ma9069f75e3" y="261.2"/>
      </g>
     </g>
     <g id="text_37">
      <!-- nonlinear -->
      <g transform="translate(718.547884 275.357813)scale(0.1 -0.1)">
       <use xlink:href="#ArialMT-6e"/>
       <use x="55.615234" xlink:href="#ArialMT-6f"/>
       <use x="111.230469" xlink:href="#ArialMT-6e"/>
       <use x="166.845703" xlink:href="#ArialMT-6c"/>
       <use x="189.0625" xlink:href="#ArialMT-69"/>
       <use x="211.279297" xlink:href="#ArialMT-6e"/>
       <use x="266.894531" xlink:href="#ArialMT-65"/>
       <use x="322.509766" xlink:href="#ArialMT-61"/>
       <use x="378.125" xlink:href="#ArialMT-72"/>
      </g>
     </g>
    </g>
    <g id="xtick_8">
     <g id="line2d_30">
      <g>
       <use style="stroke:#000000;stroke-width:0.8;" x="847.516465" xlink:href="#ma9069f75e3" y="261.2"/>
      </g>
     </g>
     <g id="text_38">
      <!-- linear_forward -->
      <g transform="translate(815.836778 275.479688)scale(0.1 -0.1)">
       <use xlink:href="#ArialMT-6c"/>
       <use x="22.216797" xlink:href="#ArialMT-69"/>
       <use x="44.433594" xlink:href="#ArialMT-6e"/>
       <use x="100.048828" xlink:href="#ArialMT-65"/>
       <use x="155.664062" xlink:href="#ArialMT-61"/>
       <use x="211.279297" xlink:href="#ArialMT-72"/>
       <use x="244.580078" xlink:href="#ArialMT-5f"/>
       <use x="300.195312" xlink:href="#ArialMT-66"/>
       <use x="327.978516" xlink:href="#ArialMT-6f"/>
       <use x="383.59375" xlink:href="#ArialMT-72"/>
       <use x="416.894531" xlink:href="#ArialMT-77"/>
       <use x="489.111328" xlink:href="#ArialMT-61"/>
       <use x="544.726562" xlink:href="#ArialMT-72"/>
       <use x="578.027344" xlink:href="#ArialMT-64"/>
      </g>
     </g>
    </g>
    <g id="xtick_9">
     <g id="line2d_31">
      <g>
       <use style="stroke:#000000;stroke-width:0.8;" x="955.915515" xlink:href="#ma9069f75e3" y="261.2"/>
      </g>
     </g>
     <g id="text_39">
      <!-- linear_backward -->
      <g transform="translate(919.509265 275.357813)scale(0.1 -0.1)">
       <use xlink:href="#ArialMT-6c"/>
       <use x="22.216797" xlink:href="#ArialMT-69"/>
       <use x="44.433594" xlink:href="#ArialMT-6e"/>
       <use x="100.048828" xlink:href="#ArialMT-65"/>
       <use x="155.664062" xlink:href="#ArialMT-61"/>
       <use x="211.279297" xlink:href="#ArialMT-72"/>
       <use x="244.580078" xlink:href="#ArialMT-5f"/>
       <use x="300.195312" xlink:href="#ArialMT-62"/>
       <use x="355.810547" xlink:href="#ArialMT-61"/>
       <use x="411.425781" xlink:href="#ArialMT-63"/>
       <use x="461.425781" xlink:href="#ArialMT-6b"/>
       <use x="511.425781" xlink:href="#ArialMT-77"/>
       <use x="583.642578" xlink:href="#ArialMT-61"/>
       <use x="639.257812" xlink:href="#ArialMT-72"/>
       <use x="672.558594" xlink:href="#ArialMT-64"/>
      </g>
     </g>
    </g>
   </g>
   <g id="matplotlib.axis_6">
    <g id="ytick_19">
     <g id="line2d_32">
      <g>
       <use style="stroke:#000000;stroke-width:0.8;" x="710.391667" xlink:href="#m2e148cb361" y="261.2"/>
      </g>
     </g>
     <g id="text_40">
      <!-- 0 -->
      <g transform="translate(697.830729 264.778906)scale(0.1 -0.1)">
       <use xlink:href="#ArialMT-30"/>
      </g>
     </g>
    </g>
    <g id="ytick_20">
     <g id="line2d_33">
      <g>
       <use style="stroke:#000000;stroke-width:0.8;" x="710.391667" xlink:href="#m2e148cb361" y="233.062723"/>
      </g>
     </g>
     <g id="text_41">
      <!-- 250 -->
      <g transform="translate(686.708854 236.641629)scale(0.1 -0.1)">
       <use xlink:href="#ArialMT-32"/>
       <use x="55.615234" xlink:href="#ArialMT-35"/>
       <use x="111.230469" xlink:href="#ArialMT-30"/>
      </g>
     </g>
    </g>
    <g id="ytick_21">
     <g id="line2d_34">
      <g>
       <use style="stroke:#000000;stroke-width:0.8;" x="710.391667" xlink:href="#m2e148cb361" y="204.925446"/>
      </g>
     </g>
     <g id="text_42">
      <!-- 500 -->
      <g transform="translate(686.708854 208.504353)scale(0.1 -0.1)">
       <use xlink:href="#ArialMT-35"/>
       <use x="55.615234" xlink:href="#ArialMT-30"/>
       <use x="111.230469" xlink:href="#ArialMT-30"/>
      </g>
     </g>
    </g>
    <g id="ytick_22">
     <g id="line2d_35">
      <g>
       <use style="stroke:#000000;stroke-width:0.8;" x="710.391667" xlink:href="#m2e148cb361" y="176.78817"/>
      </g>
     </g>
     <g id="text_43">
      <!-- 750 -->
      <g transform="translate(686.708854 180.367076)scale(0.1 -0.1)">
       <use xlink:href="#ArialMT-37"/>
       <use x="55.615234" xlink:href="#ArialMT-35"/>
       <use x="111.230469" xlink:href="#ArialMT-30"/>
      </g>
     </g>
    </g>
    <g id="ytick_23">
     <g id="line2d_36">
      <g>
       <use style="stroke:#000000;stroke-width:0.8;" x="710.391667" xlink:href="#m2e148cb361" y="148.650893"/>
      </g>
     </g>
     <g id="text_44">
      <!-- 1000 -->
      <g transform="translate(681.147917 152.229799)scale(0.1 -0.1)">
       <use xlink:href="#ArialMT-31"/>
       <use x="55.615234" xlink:href="#ArialMT-30"/>
       <use x="111.230469" xlink:href="#ArialMT-30"/>
       <use x="166.845703" xlink:href="#ArialMT-30"/>
      </g>
     </g>
    </g>
    <g id="ytick_24">
     <g id="line2d_37">
      <g>
       <use style="stroke:#000000;stroke-width:0.8;" x="710.391667" xlink:href="#m2e148cb361" y="120.513616"/>
      </g>
     </g>
     <g id="text_45">
      <!-- 1250 -->
      <g transform="translate(681.147917 124.092522)scale(0.1 -0.1)">
       <use xlink:href="#ArialMT-31"/>
       <use x="55.615234" xlink:href="#ArialMT-32"/>
       <use x="111.230469" xlink:href="#ArialMT-35"/>
       <use x="166.845703" xlink:href="#ArialMT-30"/>
      </g>
     </g>
    </g>
    <g id="ytick_25">
     <g id="line2d_38">
      <g>
       <use style="stroke:#000000;stroke-width:0.8;" x="710.391667" xlink:href="#m2e148cb361" y="92.376339"/>
      </g>
     </g>
     <g id="text_46">
      <!-- 1500 -->
      <g transform="translate(681.147917 95.955246)scale(0.1 -0.1)">
       <use xlink:href="#ArialMT-31"/>
       <use x="55.615234" xlink:href="#ArialMT-35"/>
       <use x="111.230469" xlink:href="#ArialMT-30"/>
       <use x="166.845703" xlink:href="#ArialMT-30"/>
      </g>
     </g>
    </g>
    <g id="ytick_26">
     <g id="line2d_39">
      <g>
       <use style="stroke:#000000;stroke-width:0.8;" x="710.391667" xlink:href="#m2e148cb361" y="64.239062"/>
      </g>
     </g>
     <g id="text_47">
      <!-- 1750 -->
      <g transform="translate(681.147917 67.817969)scale(0.1 -0.1)">
       <use xlink:href="#ArialMT-31"/>
       <use x="55.615234" xlink:href="#ArialMT-37"/>
       <use x="111.230469" xlink:href="#ArialMT-35"/>
       <use x="166.845703" xlink:href="#ArialMT-30"/>
      </g>
     </g>
    </g>
    <g id="ytick_27">
     <g id="line2d_40">
      <g>
       <use style="stroke:#000000;stroke-width:0.8;" x="710.391667" xlink:href="#m2e148cb361" y="36.101786"/>
      </g>
     </g>
     <g id="text_48">
      <!-- 2000 -->
      <g transform="translate(681.147917 39.680692)scale(0.1 -0.1)">
       <use xlink:href="#ArialMT-32"/>
       <use x="55.615234" xlink:href="#ArialMT-30"/>
       <use x="111.230469" xlink:href="#ArialMT-30"/>
       <use x="166.845703" xlink:href="#ArialMT-30"/>
      </g>
     </g>
    </g>
    <g id="text_49">
     <!-- planning time (s) -->
     <g transform="translate(675.043229 179.98125)rotate(-90)scale(0.1 -0.1)">
      <use xlink:href="#ArialMT-70"/>
      <use x="55.615234" xlink:href="#ArialMT-6c"/>
      <use x="77.832031" xlink:href="#ArialMT-61"/>
      <use x="133.447266" xlink:href="#ArialMT-6e"/>
      <use x="189.0625" xlink:href="#ArialMT-6e"/>
      <use x="244.677734" xlink:href="#ArialMT-69"/>
      <use x="266.894531" xlink:href="#ArialMT-6e"/>
      <use x="322.509766" xlink:href="#ArialMT-67"/>
      <use x="378.125" xlink:href="#ArialMT-20"/>
      <use x="405.908203" xlink:href="#ArialMT-74"/>
      <use x="433.691406" xlink:href="#ArialMT-69"/>
      <use x="455.908203" xlink:href="#ArialMT-6d"/>
      <use x="539.208984" xlink:href="#ArialMT-65"/>
      <use x="594.824219" xlink:href="#ArialMT-20"/>
      <use x="622.607422" xlink:href="#ArialMT-28"/>
      <use x="655.908203" xlink:href="#ArialMT-73"/>
      <use x="705.908203" xlink:href="#ArialMT-29"/>
     </g>
    </g>
   </g>
   <g id="PathCollection_1">
    <defs>
     <path d="M 0 1.118034 
C 0.296506 1.118034 0.580908 1.000231 0.790569 0.790569 
C 1.000231 0.580908 1.118034 0.296506 1.118034 -0 
C 1.118034 -0.296506 1.000231 -0.580908 0.790569 -0.790569 
C 0.580908 -1.000231 0.296506 -1.118034 0 -1.118034 
C -0.296506 -1.118034 -0.580908 -1.000231 -0.790569 -0.790569 
C -1.000231 -0.580908 -1.118034 -0.296506 -1.118034 0 
C -1.118034 0.296506 -1.000231 0.580908 -0.790569 0.790569 
C -0.580908 1.000231 -0.296506 1.118034 0 1.118034 
z
" id="C0_0_c7a2c464c1"/>
    </defs>
    <g clip-path="url(#p45e1f9d124)">
     <use style="stroke:#000000;" x="739.117415" xlink:href="#C0_0_c7a2c464c1" y="239.320022"/>
    </g>
    <g clip-path="url(#p45e1f9d124)">
     <use style="stroke:#000000;" x="739.117415" xlink:href="#C0_0_c7a2c464c1" y="188.657827"/>
    </g>
    <g clip-path="url(#p45e1f9d124)">
     <use style="stroke:#000000;" x="739.117415" xlink:href="#C0_0_c7a2c464c1" y="233.827368"/>
    </g>
    <g clip-path="url(#p45e1f9d124)">
     <use style="stroke:#000000;" x="739.117415" xlink:href="#C0_0_c7a2c464c1" y="238.519896"/>
    </g>
    <g clip-path="url(#p45e1f9d124)">
     <use style="stroke:#000000;" x="739.117415" xlink:href="#C0_0_c7a2c464c1" y="249.954527"/>
    </g>
    <g clip-path="url(#p45e1f9d124)">
     <use style="stroke:#000000;" x="739.117415" xlink:href="#C0_0_c7a2c464c1" y="208.117638"/>
    </g>
    <g clip-path="url(#p45e1f9d124)">
     <use style="stroke:#000000;" x="739.117415" xlink:href="#C0_0_c7a2c464c1" y="248.980942"/>
    </g>
    <g clip-path="url(#p45e1f9d124)">
     <use style="stroke:#000000;" x="739.117415" xlink:href="#C0_0_c7a2c464c1" y="243.186487"/>
    </g>
    <g clip-path="url(#p45e1f9d124)">
     <use style="stroke:#000000;" x="739.117415" xlink:href="#C0_0_c7a2c464c1" y="247.114898"/>
    </g>
    <g clip-path="url(#p45e1f9d124)">
     <use style="stroke:#000000;" x="739.117415" xlink:href="#C0_0_c7a2c464c1" y="232.264082"/>
    </g>
   </g>
   <g id="PathCollection_2">
    <defs>
     <path d="M 0 1.118034 
C 0.296506 1.118034 0.580908 1.000231 0.790569 0.790569 
C 1.000231 0.580908 1.118034 0.296506 1.118034 0 
C 1.118034 -0.296506 1.000231 -0.580908 0.790569 -0.790569 
C 0.580908 -1.000231 0.296506 -1.118034 0 -1.118034 
C -0.296506 -1.118034 -0.580908 -1.000231 -0.790569 -0.790569 
C -1.000231 -0.580908 -1.118034 -0.296506 -1.118034 0 
C -1.118034 0.296506 -1.000231 0.580908 -0.790569 0.790569 
C -0.580908 1.000231 -0.296506 1.118034 0 1.118034 
z
" id="mb765cc8c61" style="stroke:#ef476f;"/>
    </defs>
    <g clip-path="url(#p45e1f9d124)">
     <use style="fill:#ef476f;stroke:#ef476f;" x="847.516465" xlink:href="#mb765cc8c61" y="58.611607"/>
     <use style="fill:#ef476f;stroke:#ef476f;" x="955.915515" xlink:href="#mb765cc8c61" y="58.611607"/>
    </g>
   </g>
   <g id="line2d_41">
    <path clip-path="url(#p45e1f9d124)" d="M 739.117415 58.611607 
L 847.516465 58.611607 
L 955.915515 58.611607 
" style="fill:none;stroke:#ffadad;stroke-dasharray:6,2;stroke-dashoffset:0;"/>
   </g>
   <g id="patch_31">
    <path d="M 710.391667 261.2 
L 710.391667 24.846875 
" style="fill:none;stroke:#000000;stroke-linecap:square;stroke-linejoin:miter;stroke-width:0.8;"/>
   </g>
   <g id="patch_32">
    <path d="M 984.641264 261.2 
L 984.641264 24.846875 
" style="fill:none;stroke:#000000;stroke-linecap:square;stroke-linejoin:miter;stroke-width:0.8;"/>
   </g>
   <g id="patch_33">
    <path d="M 710.391667 261.2 
L 984.641264 261.2 
" style="fill:none;stroke:#000000;stroke-linecap:square;stroke-linejoin:miter;stroke-width:0.8;"/>
   </g>
   <g id="patch_34">
    <path d="M 710.391667 24.846875 
L 984.641264 24.846875 
" style="fill:none;stroke:#000000;stroke-linecap:square;stroke-linejoin:miter;stroke-width:0.8;"/>
   </g>
   <g id="text_50">
    <!-- Average runtime until success/timeout -->
    <g transform="translate(746.248653 18.846875)scale(0.12 -0.12)">
     <defs>
      <path d="M 0 -78 
L 1328 4659 
L 1778 4659 
L 453 -78 
L 0 -78 
z
" id="ArialMT-2f" transform="scale(0.015625)"/>
     </defs>
     <use xlink:href="#ArialMT-41"/>
     <use x="64.949219" xlink:href="#ArialMT-76"/>
     <use x="114.949219" xlink:href="#ArialMT-65"/>
     <use x="170.564453" xlink:href="#ArialMT-72"/>
     <use x="203.865234" xlink:href="#ArialMT-61"/>
     <use x="259.480469" xlink:href="#ArialMT-67"/>
     <use x="315.095703" xlink:href="#ArialMT-65"/>
     <use x="370.710938" xlink:href="#ArialMT-20"/>
     <use x="398.494141" xlink:href="#ArialMT-72"/>
     <use x="431.794922" xlink:href="#ArialMT-75"/>
     <use x="487.410156" xlink:href="#ArialMT-6e"/>
     <use x="543.025391" xlink:href="#ArialMT-74"/>
     <use x="570.808594" xlink:href="#ArialMT-69"/>
     <use x="593.025391" xlink:href="#ArialMT-6d"/>
     <use x="676.326172" xlink:href="#ArialMT-65"/>
     <use x="731.941406" xlink:href="#ArialMT-20"/>
     <use x="759.724609" xlink:href="#ArialMT-75"/>
     <use x="815.339844" xlink:href="#ArialMT-6e"/>
     <use x="870.955078" xlink:href="#ArialMT-74"/>
     <use x="898.738281" xlink:href="#ArialMT-69"/>
     <use x="920.955078" xlink:href="#ArialMT-6c"/>
     <use x="943.171875" xlink:href="#ArialMT-20"/>
     <use x="970.955078" xlink:href="#ArialMT-73"/>
     <use x="1020.955078" xlink:href="#ArialMT-75"/>
     <use x="1076.570312" xlink:href="#ArialMT-63"/>
     <use x="1126.570312" xlink:href="#ArialMT-63"/>
     <use x="1176.570312" xlink:href="#ArialMT-65"/>
     <use x="1232.185547" xlink:href="#ArialMT-73"/>
     <use x="1282.185547" xlink:href="#ArialMT-73"/>
     <use x="1332.185547" xlink:href="#ArialMT-2f"/>
     <use x="1359.96875" xlink:href="#ArialMT-74"/>
     <use x="1387.751953" xlink:href="#ArialMT-69"/>
     <use x="1409.96875" xlink:href="#ArialMT-6d"/>
     <use x="1493.269531" xlink:href="#ArialMT-65"/>
     <use x="1548.884766" xlink:href="#ArialMT-6f"/>
     <use x="1604.5" xlink:href="#ArialMT-75"/>
     <use x="1660.115234" xlink:href="#ArialMT-74"/>
    </g>
   </g>
   <g id="legend_2">
    <g id="patch_35">
     <path d="M 912.850639 46.992187 
L 977.641264 46.992187 
Q 979.641264 46.992187 979.641264 44.992187 
L 979.641264 31.846875 
Q 979.641264 29.846875 977.641264 29.846875 
L 912.850639 29.846875 
Q 910.850639 29.846875 910.850639 31.846875 
L 910.850639 44.992187 
Q 910.850639 46.992187 912.850639 46.992187 
z
" style="fill:#ffffff;opacity:0.8;stroke:#cccccc;stroke-linejoin:miter;"/>
    </g>
    <g id="line2d_42">
     <path d="M 914.850639 37.504687 
L 934.850639 37.504687 
" style="fill:none;stroke:#ffadad;stroke-dasharray:6,2;stroke-dashoffset:0;"/>
    </g>
    <g id="line2d_43"/>
    <g id="text_51">
     <!-- timeout -->
     <g transform="translate(942.850639 41.004687)scale(0.1 -0.1)">
      <use xlink:href="#ArialMT-74"/>
      <use x="27.783203" xlink:href="#ArialMT-69"/>
      <use x="50" xlink:href="#ArialMT-6d"/>
      <use x="133.300781" xlink:href="#ArialMT-65"/>
      <use x="188.916016" xlink:href="#ArialMT-6f"/>
      <use x="244.53125" xlink:href="#ArialMT-75"/>
      <use x="300.146484" xlink:href="#ArialMT-74"/>
     </g>
    </g>
   </g>
  </g>
 </g>
 <defs>
  <clipPath id="p7528eae44a">
   <rect height="236.353125" width="274.249597" x="41.925" y="24.846875"/>
  </clipPath>
  <clipPath id="pd09eba34fa">
   <rect height="236.353125" width="274.249597" x="376.158333" y="24.846875"/>
  </clipPath>
  <clipPath id="p45e1f9d124">
   <rect height="236.353125" width="274.249597" x="710.391667" y="24.846875"/>
  </clipPath>
 </defs>
</svg>
